Coordinates
version=1
nRows=8
nColumns=36
inDegrees=yes

Units are S.I. units (second, meters, Newtons, ...)
If the header above contains a line with 'inDegrees', this indicates whether rotational values are in degrees (yes) or radians (no).

endheader
time	pelvis_tilt	pelvis_list	pelvis_rotation	pelvis_tx	pelvis_ty	pelvis_tz	hip_flexion_r	hip_adduction_r	hip_rotation_r	knee_angle_r	knee_angle_r_beta	ankle_angle_r	subtalar_angle_r	mtp_angle_r	hip_flexion_l	hip_adduction_l	hip_rotation_l	knee_angle_l	knee_angle_l_beta	ankle_angle_l	subtalar_angle_l	mtp_angle_l	lumbar_extension	lumbar_bending	lumbar_rotation	arm_flex_r	arm_add_r	arm_rot_r	elbow_flex_r	pro_sup_r	arm_flex_l	arm_add_l	arm_rot_l	elbow_flex_l	pro_sup_l
      2.25000000	    -34.73334580	     -1.92667234	     -5.39635466	     -0.39863893	      1.00945058	     -0.53895675	     70.91386801	     -0.65973353	      0.79610338	     43.71110212	      0.76290265	      8.95278299	     -6.31347876	     -7.49997768	     67.80302901	    -26.27485772	     -7.96818466	     43.17424163	      0.75353267	     12.42150562	     14.38533635	     -7.49997768	    -25.87925342	     -1.79191663	     11.85146684	     82.83844347	    -13.70581648	     14.26671570	     99.34323265	    105.50638590	     82.82200091	     -3.79818473	     23.07621170	     96.99437538	    106.78080546
      2.26000000	    -35.29013907	     -2.22668843	     -5.42914496	     -0.40173236	      1.00273637	     -0.53486227	     72.36152113	     -0.28971743	      0.45460979	     45.07255753	      0.78666453	      9.39419411	     -6.70239093	     -7.49997803	     69.55931624	    -26.92392222	     -7.24698516	     44.44439319	      0.77570100	     12.82210342	     14.91107042	     -7.49997803	    -26.31760772	     -1.81203625	     12.22110856	     84.49591802	    -13.99884319	     14.25969482	     99.15192068	    105.41744596	     84.35990672	     -3.32331436	     22.90334979	     96.51029172	    106.77354668
      2.27000000	    -35.86575635	     -2.48924444	     -5.46153918	     -0.40471467	      0.99582174	     -0.53078596	     73.85715171	      0.07861506	      0.21939481	     46.48679204	      0.81134758	      9.85316228	     -7.10638068	     -7.49997837	     71.33464209	    -27.53572843	     -6.58794422	     45.72003247	      0.79796510	     13.23101817	     15.27473448	     -7.49997837	    -26.67525292	     -1.84394352	     12.52936801	     86.07073997	    -14.19516299	     14.26166483	     98.93325070	    105.31521699	     85.78181801	     -2.93057657	     22.72856464	     96.05365307	    106.75902003
      2.28000000	    -36.47434528	     -2.70959395	     -5.54589372	     -0.40766553	      0.98870556	     -0.52660346	     75.40894407	      0.47885425	     -0.00630222	     47.89935965	      0.83600154	     10.32392266	     -7.58915278	     -7.49997864	     73.12089555	    -28.14335163	     -5.93962783	     46.97510283	      0.81987021	     13.66456876	     15.53546072	     -7.49997864	    -26.94327399	     -1.88767723	     12.74113390	     87.58005588	    -14.16396546	     14.31739999	     98.58319697	    105.20502639	     87.13400724	     -2.73372367	     22.52487739	     95.67333455	    106.73729134
      2.29000000	    -37.05324815	     -2.90048271	     -5.58102764	     -0.41058579	      0.98153013	     -0.52260560	     76.93957395	      0.81190628	     -0.23016776	     49.31452533	      0.86070084	     10.70943937	     -8.03051216	     -7.49997886	     74.88992729	    -28.66979763	     -5.29041555	     48.22187157	      0.84163043	     14.05533036	     15.79267881	     -7.49997886	    -27.23970028	     -1.86135835	     12.83336675	     89.11449388	    -13.99537945	     14.46129836	     98.14999158	    105.10719076	     88.41079186	     -2.70092632	     22.29471540	     95.41526292	    106.71538539
      2.30000000	    -37.63758245	     -3.09824665	     -5.57487824	     -0.41341439	      0.97433463	     -0.51878922	     78.45442625	      1.09778209	     -0.46849019	     50.69380803	      0.88477386	     11.00596121	     -8.33404261	     -7.49997907	     76.65598269	    -29.12175230	     -4.57348887	     49.38494963	      0.86192997	     14.37197263	     16.13994216	     -7.49997907	    -27.54182585	     -1.74332034	     12.88643543	     90.67880080	    -13.77163171	     14.69080188	     97.67504791	    105.01473126	     89.65161109	     -2.76341112	     22.03106969	     95.26541627	    106.69282357
      2.31000000	    -38.23632243	     -3.34175924	     -5.56664028	     -0.41604137	      0.96708552	     -0.51500696	     79.94485114	      1.36869866	     -0.77654232	     52.02816762	      0.90806283	     11.35024458	     -8.63622134	     -7.49997935	     78.46930862	    -29.55463363	     -3.72842094	     50.54108669	      0.88210837	     14.61296588	     16.58679482	     -7.49997935	    -27.78056215	     -1.62613525	     12.94870844	     92.15827853	    -13.60925246	     14.90067459	     97.25536788	    104.89651652	     90.79304879	     -2.80126032	     21.78515643	     95.15816819	    106.66156959
      2.32000000	    -38.84090408	     -3.51250908	     -5.52709012	     -0.41852812	      0.95984784	     -0.51143425	     81.44246153	      1.58119978	     -0.96721483	     53.36647812	      0.93142075	     11.83048738	     -9.13794090	     -7.49997959	     80.21615995	    -29.88926622	     -2.96833689	     51.61817338	      0.90090708	     14.80278367	     16.87555894	     -7.49997959	    -27.97797130	     -1.61784445	     13.03355033	     93.55060604	    -13.61362158	     15.03166313	     96.95947885	    104.80128484	     91.96478866	     -2.71406814	     21.67145153	     94.93066966	    106.62032091
